<?xml version="1.0" encoding="utf-8"?>
<!-- Generator: Adobe Illustrator 24.3.0, SVG Export Plug-In . SVG Version: 6.00 Build 0)  -->
<svg version="1.1" id="Layer_1" xmlns="http://www.w3.org/2000/svg" xmlns:xlink="http://www.w3.org/1999/xlink" x="0px" y="0px"
	 viewBox="0 0 1920 1080" style="enable-background:new 0 0 1920 1080;" xml:space="preserve">
<style type="text/css">
	.st0{fill:white;}
</style>
<path class="st0" d="M791.1,171.5c5.5,0,11.1,0,16.5,0c0.3,0.7,0.9,0.6,1.4,0.7c8.9,1.3,17.8,2.4,26.6,3.7
	c9.2,1.3,18.4,2.7,27.6,4.3c6,1,12.1,1.3,17.7,4.7c14.9,9.2,30.2,18.1,45.1,27.3c6.9,4.2,14.1,7.6,20.3,13.1
	c8.3,7.3,16.8,14.4,25,21.6c2,1.7,4.3,3.4,5.3,6.2c2.6,6.8,5.2,13.7,7.8,20.6c0.7,1.9,1.7,3.2,3.3,4.5c8,6,16,12.4,23.9,18.4
	c3.2,2.4,6.2,5.6,10.6,4.5c3.2-0.7,6.3-0.7,9.6-0.7c5.2,0,10.2-1.1,15.4-0.7c1.1,0,2.3-0.4,3.4-0.9c7.2-3.7,14.4-7.8,21.7-11.5
	c15.7-8,31.3-16.1,47-24.3c3.7-2,7.8-2.9,11.9-2.7c6,0.1,12.1-0.6,18.1-0.9c13.5-0.6,27-2,40.4-2.6c6.5-0.3,12.9-0.6,19.3-1
	c5.2-0.4,10.3-0.1,15.7-1c4.6-0.9,9.6-1.3,14.1-0.1c19.1,5.2,37.9,11.1,56.9,16.8c11.5,3.4,23,7,34.5,10.3c1.7,0.6,2.7,1.4,3.6,3
	c6,11.6,12.1,23.3,18.3,34.9c3,5.6,6.2,11.2,9.1,16.8c1.3,2.4,3.3,4.6,2.7,7.5c-2.3,12.9-4.7,26-7.2,38.9c-2.3,12.2-4.7,24.3-7,36.4
	c-2.6,13.7-5.2,27.3-7.8,41c-1.9,10.2-3.7,20.4-5.7,30.6c-2.9,14.4-4,29-10.6,42.7c-7.3,15.4-13.5,31.2-20.1,46.8
	c-5.9,13.8-11.5,27.7-17.5,41.4c-2.6,5.7-4,12.1-8.9,16.8c-11.2,10.6-22,21.4-33.3,31.9c-6.6,6.2-12.9,12.6-19.5,19
	c-13.5,12.8-26.7,25.9-40.2,38.7c-10.6,10.1-21,20.6-31.5,30.8c-0.4,0.4-0.9,0.9-1.3,1.3c-9.3,7.8-18.8,15.5-28.2,23.3
	c-7.6,6.3-15.2,12.8-22.9,19.1c-9.5,7.9-19.1,16-28.7,23.7c-4.5,3.6-8.6,7.8-13.9,10.2c-4.7,2.2-9.3,4.7-13.9,7
	c-22.6,11.6-45.3,23-67.8,34.5c-1.3,0.7-2.2,0.6-3.4-0.4c-5.2-4.6-10.3-9.1-15.5-13.5c-10.2-9.1-20.7-17.8-30.6-27.2
	c-9.8-9.2-20.7-17.1-29.3-27.6c-5.3-6.5-10.9-12.5-16.4-18.7c-7.6-8.8-15.2-17.5-22.9-26.3c-5.9-6.8-12.1-13.4-18-20.3
	c-7.2-8.3-14.4-16.7-21.6-25c-6.6-7.8-13.7-15.1-20.1-23.1c-13.1-16.2-25.9-32.8-38.7-49.4c-12.8-16.7-25.9-33.2-38.9-49.7
	c-13.7-17.2-27.2-34.5-40.5-52c-3.6-4.6-7.8-8.8-9.2-15.2c-4.9-22.3-10.3-44.6-15.7-66.7c-4.2-17.8-8.5-35.5-12.8-53.3
	c-1.9-7.5-3.2-15.1-5.6-22.4c0-9.6,0-19.1,0-28.7c0.7-0.3,0.6-0.9,0.7-1.4c1.6-8.2,0.1-16.7,1.3-24.9c0.9-5.6,0.4-11.4,0.6-17.1
	c0.6-13.9,1.3-27.9,1.6-41.7c0.1-9.6,1.1-19.3,0.9-28.9c-0.1-2.2,0.1-4.7,2.4-6.3c14.1-9.6,28.3-19.3,42.4-29
	c14.2-9.8,28.3-19.7,42.5-29.3c2.3-1.6,4.3-3.9,7.3-4.2c10.8-0.7,21.6-1.6,32.3-2.2c6.3-0.4,12.6-0.6,19-0.7
	C790,172.2,790.8,172.4,791.1,171.5z"/>
</svg>
